<svg xmlns="http://www.w3.org/2000/svg" viewBox="0 0 64 64">
  <defs>
    <linearGradient id="bg" x1="8" y1="6" x2="56" y2="58" gradientUnits="userSpaceOnUse">
      <stop offset="0" stop-color="#3B82F6"/>
      <stop offset="1" stop-color="#1D4ED8"/>
    </linearGradient>

    <linearGradient id="accent" x1="36" y1="18" x2="50" y2="48" gradientUnits="userSpaceOnUse">
      <stop offset="0" stop-color="#34D399"/>
      <stop offset="1" stop-color="#10B981"/>
    </linearGradient>

    <filter id="shadow" x="-20%" y="-20%" width="140%" height="140%">
      <feDropShadow dx="0" dy="4" stdDeviation="4" flood-color="#0F172A" flood-opacity="0.22"/>
    </filter>
  </defs>

  <rect x="6" y="6" width="52" height="52" rx="16" fill="url(#bg)" filter="url(#shadow)"/>

  <path
    d="M33.2 44.5C25.2 44.5 19 38.4 19 30.8C19 23.1 25.2 17 33.2 17C38.1 17 42.2 19.1 44.7 22.4L39.8 26.2C38.3 24.2 36.1 23.1 33.4 23.1C29 23.1 25.8 26.3 25.8 30.8C25.8 35.3 29 38.5 33.4 38.5C36.1 38.5 38.3 37.4 39.8 35.4L44.7 39.2C42.2 42.4 38.1 44.5 33.2 44.5Z"
    fill="white"
  />

  <path
    d="M39 31.5L49 21.5L46.8 36.2L43.4 32.8L37.4 38.8L34.2 35.6L40.2 29.6L39 31.5Z"
    fill="url(#accent)"
  />

  <circle cx="46.8" cy="36.2" r="2.4" fill="#A7F3D0"/>
</svg>
